<svg width="88" height="84" viewBox="0 0 88 84" fill="none" xmlns="http://www.w3.org/2000/svg">
<path d="M40.4372 2.98144C41.9218 0.0724337 46.0784 0.0724346 47.563 2.98144L58.0636 23.5576C58.6449 24.6965 59.7355 25.4889 60.9982 25.6897L83.8122 29.318C87.0376 29.831 88.322 33.7842 86.0142 36.095L69.69 52.4401C68.7864 53.3448 68.3699 54.627 68.5691 55.89L72.1682 78.7086C72.677 81.9346 69.3143 84.3778 66.4034 82.8969L45.8138 72.4227C44.6741 71.8429 43.326 71.8429 42.1864 72.4227L21.5968 82.8969C18.6859 84.3778 15.3232 81.9346 15.832 78.7086L19.4311 55.89C19.6303 54.627 19.2137 53.3448 18.3102 52.4401L1.98602 36.095C-0.321849 33.7842 0.962612 29.831 4.18799 29.3181L27.002 25.6897C28.2647 25.4889 29.3553 24.6965 29.9365 23.5576L40.4372 2.98144Z" fill="#F7665A"/>
</svg>
